PathFileType	4	(X/Y/Z)	C:/Users/opensim2020/Desktop/walking_exp_matlab/subject03_walking05_straight_01.trc																																																																																																																																					
DataRate	CameraRate	NumFrames	NumMarkers	Units	OrigDataRate	OrigDataStartFrame	OrigNumFrames																																																																																																																																	
100	100	5	45	mm	100	801	298																																																																																																																																	
Frame#	Time	LFHD			RFHD			LBHD			RBHD			C7			T10			CLAV			STRN			RBAK			LSHO			LUPA			LELB			LFRM			LWRA			LWRB			LFIN			RSHO			RUPA			RELB			RFRM			RWRA			RWRB			RFIN			LASI			RASI			LPSI			RPSI			LTHI			LKNE			LTIB			LANK			LHEE			LTOE			RTHI			RKNE			RTIB			RANK			RHEE			RTOE			*39			*40			*41			*42			*43			*44		
		X1	Y1	Z1	X2	Y2	Z2	X3	Y3	Z3	X4	Y4	Z4	X5	Y5	Z5	X6	Y6	Z6	X7	Y7	Z7	X8	Y8	Z8	X9	Y9	Z9	X10	Y10	Z10	X11	Y11	Z11	X12	Y12	Z12	X13	Y13	Z13	X14	Y14	Z14	X15	Y15	Z15	X16	Y16	Z16	X17	Y17	Z17	X18	Y18	Z18	X19	Y19	Z19	X20	Y20	Z20	X21	Y21	Z21	X22	Y22	Z22	X23	Y23	Z23	X24	Y24	Z24	X25	Y25	Z25	X26	Y26	Z26	X27	Y27	Z27	X28	Y28	Z28	X29	Y29	Z29	X30	Y30	Z30	X31	Y31	Z31	X32	Y32	Z32	X33	Y33	Z33	X34	Y34	Z34	X35	Y35	Z35	X36	Y36	Z36	X37	Y37	Z37	X38	Y38	Z38	X39	Y39	Z39	X40	Y40	Z40	X41	Y41	Z41	X42	Y42	Z42	X43	Y43	Z43	X44	Y44	Z44	X45	Y45	Z45
																																																																																																																																								
75	0.74	-653.8501	1608.42261	-1052.06201	-676.94684	1611.32886	-920.78369	-777.97516	1557.59473	-1069.82019	-796.12146	1560.2511	-939.64063	-808.70453	1401.19568	-1014.06036	-844.17444	1088.15869	-1018.63196	-688.35736	1323.32666	-1002.39404	-644.80017	1157.98242	-1011.42078	-869.19928	1222.10645	-927.9809	-714.31268	1367.19775	-1158.74792	-677.64777	1184.55811	-1241.37134	-625.25635	1076.76672	-1256.07031	-525.48065	1002.29688	-1235.88379	-436.45142	938.41278	-1183.77185	-446.72064	919.96582	-1234.88184	-375.45132	883.33655	-1211.79407	-748.68658	1341.66174	-847.21613	-760.02271	1118.20117	-779.15802	-747.96698	1005.58813	-764.75934	-734.80524	869.03094	-762.12848	-703.50311	773.33276	-794.44733	-739.49005	768.65387	-754.66498	-719.84845	696.35339	-764.30548	-677.14038	918.888	-1132.34692	-673.39105	928.22089	-892.85699	-839.15405	941.30774	-1078.53918	-836.034	951.85681	-930.07074	-769.08209	619.68127	-1163.85181	-804.2594	443.51627	-1129.97559	-934.68982	287.59702	-1134.14966	-1054.71228	116.51618	-1097.08508	-1109.34265	102.69672	-1064.02209	-935.03217	28.37795	-1067.30676	-673.4754	639.97137	-848.13116	-614.98657	468.54843	-883.01178	-606.58936	281.42886	-874.32709	-569.49097	67.27358	-915.71881	-610.93103	34.55022	-967.43512	-425.88699	35.04917	-934.84753	NaN	NaN	NaN	NaN	NaN	NaN	NaN	NaN	NaN	NaN	NaN	NaN	NaN	NaN	NaN	NaN	NaN	NaN
76	0.75	-643.87134	1609.68091	-1051.20752	-666.59131	1612.65894	-919.83362	-768.07764	1558.84436	-1068.61157	-785.8421	1561.5957	-938.31287	-798.49573	1402.37158	-1012.591	-833.37317	1089.06946	-1018.19104	-678.1615	1324.76416	-1001.35681	-634.13153	1159.54382	-1010.44525	-858.63855	1222.95837	-926.50299	-704.62567	1368.24438	-1157.66919	-669.52814	1184.98828	-1240.13208	-618.073	1076.71912	-1254.91943	-518.50079	1001.85492	-1234.93335	-429.5625	937.96576	-1182.828	-440.15067	919.20288	-1233.79028	-368.77167	882.90497	-1211.11902	-738.04999	1342.74609	-845.97748	-748.54108	1119.11938	-778.13196	-736.27856	1006.50171	-763.93628	-723.65723	870.09674	-761.41803	-692.03278	774.27838	-794.20123	-727.79498	769.51599	-754.11725	-708.42706	697.1734	-764.33459	-665.57483	919.56268	-1131.09644	-662.24561	930.49963	-891.63672	-828.05402	941.56708	-1077.84106	-824.83179	953.62152	-929.44702	-754.74738	619.23022	-1163.08337	-788.33295	442.67657	-1130.46655	-923.74579	290.3573	-1134.19275	-1048.63025	123.20403	-1096.43054	-1103.11377	112.02287	-1062.59082	-934.28833	28.27549	-1066.71973	-664.62903	641.62299	-847.66266	-606.33887	469.8963	-882.97784	-600.77435	282.12894	-874.6535	-568.82123	67.39737	-916.66284	-610.91455	34.51404	-967.85248	-425.23654	34.52108	-936.41211	-738.06042	1664.18469	-1013.66858	NaN	NaN	NaN	NaN	NaN	NaN	NaN	NaN	NaN	NaN	NaN	NaN	NaN	NaN	NaN
77	0.76	-633.92493	1611.0332	-1050.31616	-656.24597	1614.06458	-918.90948	-758.14362	1560.21545	-1067.20959	-775.60431	1563.10999	-936.92944	-788.33276	1403.72192	-1011.0965	-822.75964	1090.25464	-1017.74725	-667.90283	1326.2876	-1000.3371	-623.57092	1161.20215	-1009.49066	-848.01306	1223.99377	-925.07074	-694.93793	1369.67786	-1156.67578	-661.39038	1185.62427	-1238.98657	-610.95483	1076.95276	-1253.95642	-511.86642	1001.31433	-1233.8689	-423.21231	937.06891	-1182.06848	-434.23795	918.05347	-1232.823	-362.7713	881.8219	-1210.69556	-727.37604	1344.09912	-844.76294	-736.9599	1120.38318	-777.13525	-724.70941	1007.76208	-763.10651	-711.81683	871.34814	-760.79346	-679.85199	775.57062	-793.7619	-715.80811	770.76154	-753.51202	-696.35486	698.38623	-764.04486	-654.19653	920.49622	-1129.81909	-651.08899	932.99365	-890.55774	-816.46387	942.03528	-1077.17358	-813.67346	955.6203	-928.90076	-739.93805	618.82886	-1162.54468	-771.36829	441.78619	-1131.3938	-911.61414	293.32013	-1134.04663	-1041.21741	130.52246	-1095.2583	-1095.22534	122.07064	-1060.72363	-933.40491	27.90978	-1066.09399	-655.92194	643.15869	-846.711	-597.6424	471.40201	-882.80054	-595.91791	282.83539	-874.81586	-568.16577	67.67101	-917.14471	-610.75806	34.80815	-968.29138	-424.69949	34.28838	-936.72162	-728.00903	1665.41846	-1012.24359	NaN	NaN	NaN	NaN	NaN	NaN	NaN	NaN	NaN	NaN	NaN	NaN	NaN	NaN	NaN
78	0.77	-623.95105	1612.32288	-1049.32751	-645.94507	1615.47607	-917.92383	-748.23712	1561.60522	-1065.94055	-765.22711	1564.49487	-935.63989	-778.21289	1405.01123	-1009.66138	-812.28436	1091.49841	-1017.21899	-657.70325	1327.80994	-999.24176	-613.07086	1162.8241	-1008.5423	-837.40485	1225.10083	-923.60492	-685.28406	1371.32922	-1155.60608	-653.2099	1186.54321	-1237.53467	-603.94684	1077.3363	-1252.2384	-505.60938	1000.64374	-1232.70129	-417.02689	936.05725	-1181.25195	-428.84656	916.54669	-1232.03406	-357.55283	880.02808	-1210.32104	-716.76801	1345.71204	-843.60071	-725.26978	1121.88208	-776.17194	-712.82739	1009.25684	-762.37891	-699.68732	872.86407	-760.25677	-668.07239	777.08453	-793.8631	-703.25757	772.34406	-752.94281	-683.88391	699.89563	-763.84546	-642.37335	921.52252	-1127.96814	-640.01105	935.56171	-889.55743	-805.00482	942.66064	-1076.49707	-802.57227	957.74896	-928.39636	-724.77051	618.46198	-1162.25439	-753.47784	440.88336	-1132.93689	-898.37433	296.49286	-1133.93469	-1032.44531	138.16135	-1093.7323	-1085.51404	132.70416	-1058.24988	-932.06897	27.74147	-1065.38843	-647.48572	644.83527	-846.00183	-589.75732	472.59293	-882.08289	-591.63989	283.46518	-874.22937	-567.81201	67.78271	-917.25598	-610.64392	34.88223	-968.36847	-424.41898	34.06301	-936.41241	-717.77313	1666.79797	-1011.14349	NaN	NaN	NaN	NaN	NaN	NaN	NaN	NaN	NaN	NaN	NaN	NaN	NaN	NaN	NaN
79	0.78	-613.9823	1613.53516	-1048.47668	-635.61877	1616.64404	-916.98389	-738.29352	1562.84778	-1064.70483	-754.90863	1565.76221	-934.38623	-768.15179	1406.18127	-1008.31476	-802.03809	1092.70325	-1016.61322	-647.48773	1329.20154	-998.20203	-602.67999	1164.31616	-1007.59839	-826.68408	1226.14185	-922.15155	-675.65594	1372.94507	-1154.31921	-644.95813	1187.70081	-1236.12219	-597.06061	1077.82654	-1250.68372	-499.60861	999.98358	-1231.69141	-411.56342	934.31415	-1180.67078	-423.95547	914.74603	-1231.29395	-352.93512	877.47406	-1210.05811	-706.09717	1347.30066	-842.46429	-713.62213	1123.45764	-775.17871	-700.56299	1010.88263	-761.70105	-687.18494	874.53424	-759.78748	-656.07953	778.7326	-794.09192	-690.35101	774.09045	-752.3551	-671.03851	701.45911	-763.6145	-631.34619	922.66736	-1126.46729	-629.07141	937.97931	-888.65472	-793.69037	943.38586	-1075.9325	-791.57739	959.82031	-927.85736	-709.39954	618.05933	-1162.27332	-734.83594	439.93314	-1134.89441	-883.92249	299.7966	-1133.79871	-1022.12238	145.9044	-1092.03467	-1073.81433	143.56978	-1055.28162	-930.66187	27.53209	-1065.0105	-638.11902	646.11328	-844.19	-582.98242	473.44586	-880.66064	-588.10822	283.71204	-873.26324	-567.73743	67.85828	-917.27484	-610.55701	34.80365	-968.17383	-424.32434	33.91793	-936.35101	-707.68915	1668.05688	-1009.8902	NaN	NaN	NaN	NaN	NaN	NaN	NaN	NaN	NaN	NaN	NaN	NaN	NaN	NaN	NaN
